<svg height="512pt" viewBox="-26 0 512 512.00035" width="512pt" xmlns="http://www.w3.org/2000/svg"><path d="m229.691406 77.878906v354.214844s.5625 82.183594 62.238282 79.859375c51.027343-1.925781 42.519531-34.253906 64.917968-49.046875 22.398438-14.789062 75.964844-9.613281 91.039063-67.976562 9.875-38.230469-6.246094-65.542969-6.246094-65.542969s15.441406-16.617188 17.59375-56.191407c2.15625-39.578124-20.707031-61.265624-20.707031-61.265624s14.253906-12.765626 11.054687-49.789063-28.699219-45.210937-28.699219-45.210937-26.140624-81.597657-87.707031-71.425782c0 0-14.609375-45.503906-54.722656-45.503906-25.660156 0-47.921875 20.484375-48.761719 77.878906zm0 0" fill="#9c8f9a"/><path d="m229.691406 77.878906v354.214844s-.566406 82.183594-62.242187 79.859375c-51.027344-1.925781-42.519531-34.253906-64.917969-49.046875-22.398438-14.789062-75.964844-9.613281-91.039062-67.976562-9.875-38.230469 6.246093-65.542969 6.246093-65.542969s-15.441406-16.617188-17.59375-56.191407c-2.15625-39.578124 20.707031-61.265624 20.707031-61.265624s-14.253906-12.765626-11.054687-49.789063 28.695313-45.210937 28.695313-45.210937 26.144531-81.597657 87.710937-71.425782c0 0 14.605469-45.503906 54.722656-45.503906 25.660157 0 47.921875 20.484375 48.765625 77.878906zm0 0" fill="#ff4755"/><path d="m447.886719 349.523438c-15.074219 58.367187-68.640625 53.1875-91.039063 67.980468-22.398437 14.789063-13.890625 47.121094-64.917968 49.042969-61.675782 2.324219-62.238282-79.859375-62.238282-79.859375v45.402344s.5625 82.183594 62.238282 79.859375c51.027343-1.921875 42.519531-34.25 64.917968-49.042969 22.398438-14.789062 75.964844-9.613281 91.039063-67.980469 4.988281-19.308593 3.339843-35.828125.492187-47.453125-.160156.683594-.3125 1.359375-.492187 2.050782zm0 0" fill="#8c808a"/><path d="m167.453125 466.546875c-51.03125-1.921875-42.523437-34.253906-64.921875-49.042969-22.398438-14.792968-75.960938-9.613281-91.039062-67.980468-.175782-.691407-.328126-1.367188-.492188-2.050782-2.847656 11.628906-4.492188 28.144532.492188 47.457032 15.078124 58.363281 68.640624 53.1875 91.039062 67.976562 22.398438 14.792969 13.890625 47.121094 64.921875 49.046875 61.675781 2.324219 62.238281-79.859375 62.238281-79.859375v-45.40625s-.566406 82.183594-62.238281 79.859375zm0 0" fill="#fc2b3a"/><path d="m58.523438 163.730469c1.703124 0 3.421874-.578125 4.828124-1.761719 3.167969-2.671875 3.574219-7.402344.90625-10.574219-10.378906-12.324219-17.226562-34.828125-20.472656-47.589843-3.574218 7.777343-5.289062 13.125-5.289062 13.125s-2.390625.769531-5.789063 2.890624c4.234375 13.589844 10.84375 30.285157 20.070313 41.238282 1.488281 1.765625 3.609375 2.671875 5.746094 2.671875zm0 0" fill="#e61f2d"/><path d="m20.851562 211.929688s-2.453124 2.335937-5.667968 6.84375c11.574218 7.03125 26.628906 15.972656 34.976562 20.148437 1.078125.539063 2.222656.792969 3.351563.792969 2.75 0 5.402343-1.519532 6.714843-4.148438 1.855469-3.707031.351563-8.210937-3.355468-10.066406-10.199219-5.101562-31.949219-18.324219-42.941406-25.085938 3.210937 8.179688 6.921874 11.515626 6.921874 11.515626zm0 0" fill="#e61f2d"/><path d="m53.25 336.625c-22.53125-9.78125-36.433594-16.023438-42.753906-18.894531 3.835937 7.988281 7.242187 11.65625 7.242187 11.65625s-1.390625 2.367187-3.101562 6.65625c7.65625 3.417969 18.453125 8.1875 32.636719 14.347656.976562.421875 1.988281.621094 2.984374.621094 2.898438 0 5.660157-1.6875 6.886719-4.515625 1.652344-3.800782-.09375-8.21875-3.894531-9.871094zm0 0" fill="#e61f2d"/><path d="m85.320312 397.375c-4.089843-.664062-7.941406 2.117188-8.601562 6.207031-.664062 4.089844 2.117188 7.941407 6.207031 8.605469.125.019531 12.8125 2.117188 25.816407 8.25 16.144531 7.609375 24.878906 17.492188 25.960937 29.363281.351563 3.898438 3.625 6.824219 7.460937 6.824219.230469 0 .457032-.007812.6875-.03125 4.128907-.375 7.167969-4.023438 6.792969-8.148438-3.707031-40.804687-61.847656-50.671874-64.324219-51.070312zm0 0" fill="#e61f2d"/><path d="m183.820312 379.390625c1.515626-3.835937-.351562-8.183594-4.183593-9.722656-3.851563-1.539063-8.214844.324219-9.757813 4.171875-.457031 1.132812-10.90625 28.054687 7.914063 57.183594 1.4375 2.222656 3.847656 3.433593 6.3125 3.433593 1.394531 0 2.804687-.390625 4.0625-1.203125 3.480469-2.25 4.480469-6.894531 2.230469-10.375-14.441407-22.351562-6.9375-42.558594-6.578126-43.488281zm0 0" fill="#e61f2d"/><path d="m190.984375 236.519531c.808594.28125 1.628906.410157 2.4375.410157 3.113281 0 6.027344-1.953126 7.09375-5.066407 23.660156-68.851562-7.277344-107.929687-8.605469-109.5625-2.617187-3.210937-7.34375-3.691406-10.558594-1.074219-3.210937 2.617188-3.691406 7.34375-1.074218 10.554688.273437.335938 27.023437 34.160156 6.046875 95.207031-1.34375 3.917969.742187 8.1875 4.660156 9.53125zm0 0" fill="#e61f2d"/><path d="m214.214844 273.042969c-1.621094-3.8125-6.027344-5.589844-9.839844-3.96875-13.027344 5.546875-24.75 4.984375-34.84375-1.660157-7.878906-5.1875-12.007812-12.3125-12.109375-12.484374-2.011719-3.605469-6.5625-4.90625-10.179687-2.902344-3.625 2.003906-4.9375 6.570312-2.933594 10.195312.226562.40625 5.628906 10.03125 16.359375 17.316406 6.347656 4.308594 15.339843 8.335938 26.78125 8.335938 6.757812 0 14.371093-1.40625 22.800781-4.992188 3.8125-1.621093 5.589844-6.027343 3.964844-9.839843zm0 0" fill="#e61f2d"/><path d="m107.949219 363.238281c-.984375 4.023438 1.480469 8.085938 5.503906 9.070313.601563.148437 1.199219.21875 1.789063.21875 3.378906 0 6.445312-2.296875 7.285156-5.722656 2.832031-11.582032 2.675781-22.933594-.367188-33.800782 8.019532 2.773438 15.375 3.796875 21.855469 3.796875 17.445313 0 28.566406-7.402343 29.316406-7.917969 3.417969-2.34375 4.3125-7.03125 1.96875-10.449218-2.34375-3.414063-6.988281-4.300782-10.40625-1.957032-.917969.605469-22.578125 14.445313-53.222656-5.308593-3.542969-5.085938-7.800781-10.007813-12.78125-14.726563-15.773437-14.960937-33.128906-22.628906-33.863281-22.949218-3.792969-1.660157-8.21875.078124-9.875 3.875-1.65625 3.796874.074218 8.222656 3.875 9.878906.609375.265625 60.867187 27.191406 48.921875 75.992187zm0 0" fill="#e61f2d"/><path d="m75.972656 211.742188c.292969.210937 29.429688 21.285156 29.828125 57.820312.046875 4.113281 3.398438 7.417969 7.5 7.417969h.085938c4.144531-.042969 7.464843-3.441407 7.421875-7.585938-.484375-44.101562-34.703125-68.863281-36.160156-69.894531-3.382813-2.394531-8.0625-1.597656-10.457032 1.78125-2.398437 3.382812-1.601562 8.066406 1.78125 10.460938zm0 0" fill="#e61f2d"/><path d="m101.132812 181.898438c.808594 0 1.636719-.132813 2.445313-.410157 3.917969-1.351562 5.996094-5.621093 4.644531-9.539062-2.554687-7.417969-3.613281-14.808594-3.699218-21.882813 18.050781 33.617188 50.53125 45.085938 52.238281 45.667969.800781.273437 1.617187.402344 2.417969.402344 3.125 0 6.039062-1.964844 7.101562-5.085938 1.339844-3.921875-.757812-8.183593-4.679688-9.519531-.433593-.148438-42.710937-15.070312-52.042968-61.582031 4.046875-12.007813 9.066406-19.894531 9.207031-20.117188 2.261719-3.464843 1.292969-8.109375-2.171875-10.375-3.464844-2.273437-8.113281-1.304687-10.386719 2.160157-1.109375 1.699218-27.0625 42.054687-12.167969 85.222656 1.070313 3.109375 3.980469 5.058594 7.09375 5.058594zm0 0" fill="#e61f2d"/><path d="m151.335938 103.234375c.515624 0 1.042968-.050781 1.566406-.164063 27.246094-5.800781 39.621094-21.644531 45.207031-33.914062 6.019531-13.230469 5.507813-25.183594 5.484375-25.683594-.203125-4.125-3.683594-7.277344-7.824219-7.109375-4.125.183594-7.328125 3.683594-7.164062 7.808594.054687 1.457031.9375 35.753906-38.824219 44.222656-4.054688.859375-6.640625 4.847657-5.777344 8.898438.75 3.527343 3.863282 5.941406 7.332032 5.941406zm0 0" fill="#e61f2d"/><g fill="#82d361"><path d="m337.433594 95.730469v-50.773438c-1.402344.140625-2.816406.3125-4.257813.546875 0 0-3.210937-9.996094-10.75-20.617187v70.84375c0 4.144531 3.359375 7.503906 7.503907 7.503906 4.144531 0 7.503906-3.359375 7.503906-7.503906zm0 0"/><path d="m352.859375 403.746094c-4.144531 0-7.5 3.359375-7.5 7.503906v63.816406c2.945313-4.578125 6.429687-8.816406 11.488281-12.160156 1.097656-.722656 2.277344-1.398438 3.515625-2.039062v-49.617188c0-4.144531-3.359375-7.503906-7.503906-7.503906zm0 0"/><path d="m273.449219 272.65625c0-4.144531-3.359375-7.503906-7.503907-7.503906h-36.253906v15.003906h36.253906c4.144532 0 7.503907-3.355469 7.503907-7.5zm0 0"/><path d="m301.757812 178.90625-29.0625 22.207031h-43.003906v15.007813h45.539063c1.648437 0 3.25-.542969 4.558593-1.542969l31.078126-23.746094c3.292968-2.515625 3.921874-7.226562 1.40625-10.519531-2.515626-3.289062-7.222657-3.921875-10.515626-1.40625zm0 0"/><path d="m310.867188 354.480469-31.078126-23.75c-1.308593-1-2.910156-1.539063-4.558593-1.539063h-45.539063v15.003906h43.003906l29.0625 22.207032c1.359376 1.039062 2.960938 1.542968 4.550782 1.542968 2.257812 0 4.488281-1.015624 5.96875-2.949218 2.511718-3.292969 1.882812-8.003906-1.410156-10.515625zm0 0"/><path d="m289.976562 448.917969c-4.144531 0-7.503906 3.359375-7.503906 7.5v55.183593c2.984375.339844 6.125.476563 9.457032.351563 1.9375-.074219 3.777343-.195313 5.550781-.355469v-55.175781c0-4.144531-3.359375-7.503906-7.503907-7.503906zm0 0"/><path d="m379.871094 319.582031c-4.144532 0-7.503906 3.359375-7.503906 7.503907 0 4.140624 3.359374 7.5 7.503906 7.5h64.277344c-1.425782-3.363282-2.507813-5.199219-2.507813-5.199219s2.878906-3.105469 6.320313-9.804688zm0 0"/><path d="m442.9375 205.808594h-53.175781c-4.144531 0-7.503907 3.359375-7.503907 7.503906s3.359376 7.503906 7.503907 7.503906h55.84375c-3.886719-5.855468-7.078125-8.886718-7.078125-8.886718s2.046875-1.835938 4.410156-6.121094zm0 0"/><path d="m278.371094 135.0625c0-4.144531-3.359375-7.503906-7.503906-7.503906h-41.175782v15.007812h41.175782c4.144531 0 7.503906-3.359375 7.503906-7.503906zm0 0"/><path d="m270.867188 394.289062h-41.175782v15.007813h41.175782c4.144531 0 7.503906-3.359375 7.503906-7.503906s-3.359375-7.503907-7.503906-7.503907zm0 0"/><path d="m459.324219 265.152344h-119.542969c-4.144531 0-7.5 3.359375-7.5 7.503906 0 4.140625 3.355469 7.5 7.5 7.5h118.917969c.222656-2.238281.40625-4.554688.539062-6.960938.148438-2.773437.164063-5.449218.085938-8.042968zm0 0"/><path d="m387.25 128.792969h49.675781c-7.730469-9.183594-16.039062-11.863281-16.039062-11.863281s-.371094-1.152344-1.117188-3.144532h-32.519531c-4.144531 0-7.5 3.359375-7.5 7.503906 0 4.144532 3.359375 7.503907 7.5 7.503907zm0 0"/></g><path d="m304.136719 272.65625c0 10.546875-8.546875 19.097656-19.097657 19.097656-10.546874 0-19.097656-8.550781-19.097656-19.097656 0-10.550781 8.550782-19.097656 19.097656-19.097656 10.550782 0 19.097657 8.546875 19.097657 19.097656zm0 0" fill="#ffe55a"/><path d="m389.761719 212.378906c0 10.546875-8.550781 19.097656-19.097657 19.097656-10.546874 0-19.097656-8.550781-19.097656-19.097656s8.550782-19.097656 19.097656-19.097656c10.546876 0 19.097657 8.550781 19.097657 19.097656zm0 0" fill="#ffe55a"/><path d="m371.957031 392.152344c0 10.546875-8.550781 19.097656-19.097656 19.097656s-19.097656-8.550781-19.097656-19.097656 8.550781-19.097656 19.097656-19.097656 19.097656 8.550781 19.097656 19.097656zm0 0" fill="#ffe55a"/><path d="m349.027344 114.828125c0 10.546875-8.550782 19.097656-19.097656 19.097656-10.546876 0-19.097657-8.550781-19.097657-19.097656s8.550781-19.097656 19.097657-19.097656c10.546874 0 19.097656 8.550781 19.097656 19.097656zm0 0" fill="#ffe55a"/></svg>