<svg height="512pt" viewBox="0 0 512 512" width="512pt" xmlns="http://www.w3.org/2000/svg"><path d="m512 256c0 141.386719-114.613281 256-256 256s-256-114.613281-256-256 114.613281-256 256-256 256 114.613281 256 256zm0 0" fill="#00c8c8"/><path d="m512 256c0-1.601562-.03125-3.191406-.0625-4.785156l-159.816406-159.816406-193.066406 340.265624 79.75 79.746094c5.683593.378906 11.414062.589844 17.195312.589844 141.386719 0 256-114.613281 256-256zm0 0" fill="#00a0aa"/><path d="m159.054688 431.664062-.050782-.054687c-.074218.078125-.054687.09375.050782.054687zm0 0" fill="#f24500"/><path d="m153 415.042969v-306.089844c0-14.285156 11.582031-25.867187 25.867188-25.867187h154.261718c14.289063 0 25.871094 11.582031 25.871094 25.867187v306.089844c0 14.289062-11.582031 25.871093-25.871094 25.871093h-154.261718c-14.285157 0-25.867188-11.582031-25.867188-25.871093zm0 0" fill="#636978"/><path d="m359 108.957031c0-14.289062-11.582031-25.871093-25.867188-25.871093h-77.132812v357.828124h77.132812c14.285157 0 25.867188-11.582031 25.867188-25.867187zm0 0" fill="#414952"/><path d="m341.304688 107.5v309h-170.609376v-309zm0 0" fill="#414952"/><path d="m256 107.5h85.304688v309h-85.304688zm0 0" fill="#23272b"/><path d="m256 383.363281h-18.890625c-27.523437 0-49.839844-22.3125-49.839844-49.839843v-18.886719h18.890625c27.523438 0 49.839844 22.3125 49.839844 49.839843zm0 0" fill="#aaf471"/><path d="m256 383.363281h18.890625c27.523437 0 49.839844-22.3125 49.839844-49.839843v-18.886719h-18.890625c-27.523438 0-49.839844 22.3125-49.839844 49.839843zm0 0" fill="#77db56"/><path d="m298.066406 244.757812c17.871094 0 32.355469-14.488281 32.355469-32.359374 0-17.871094-14.488281-32.355469-32.355469-32.355469-.136718 0-.273437.007812-.410156.007812-2.753906-19.1875-19.253906-33.9375-39.207031-33.9375-15.101563 0-28.230469 8.453125-34.914063 20.886719-.996094-.074219-2.003906-.113281-3.023437-.113281-21.503907 0-38.933594 17.429687-38.933594 38.933593 0 21.503907 17.429687 38.9375 38.933594 38.9375zm0 0" fill="#fff"/><path d="m298.066406 180.039062c-.136718 0-.273437.011719-.410156.011719-2.753906-19.1875-19.253906-33.9375-39.207031-33.9375-.960938 0-1.910157.035157-2.449219.105469v98.535156h42.066406c17.867188 0 32.355469-14.484375 32.355469-32.355468 0-17.871094-14.488281-32.359376-32.355469-32.359376zm0 0" fill="#e9edf5"/></svg>